<?xml version="1.0" standalone="no"?>
<!DOCTYPE svg PUBLIC "-//W3C//DTD SVG 20010904//EN"
 "http://www.w3.org/TR/2001/REC-SVG-20010904/DTD/svg10.dtd">
<svg version="1.0" xmlns="http://www.w3.org/2000/svg"
 width="800.000000pt" height="800.000000pt" viewBox="0 0 800.000000 800.000000"
 preserveAspectRatio="xMidYMid meet">
<metadata>
Created by potrace 1.14, written by Peter Selinger 2001-2017
</metadata>
<g transform="translate(0.000000,800.000000) scale(0.100000,-0.100000)"
fill="#000000" stroke="none">
<path d="M3779 7995 c-2 -2 -47 -6 -100 -9 -53 -4 -107 -9 -120 -11 -13 -2
-44 -7 -69 -9 -44 -5 -61 -8 -170 -26 -30 -5 -71 -12 -90 -15 -19 -3 -53 -11
-75 -17 -22 -5 -51 -12 -65 -15 -14 -2 -43 -9 -65 -15 -22 -6 -44 -11 -50 -12
-62 -14 -423 -133 -440 -145 -5 -4 -32 -16 -60 -26 -27 -10 -93 -38 -145 -63
-52 -24 -97 -44 -100 -45 -3 0 -22 -11 -42 -23 -21 -13 -44 -24 -52 -24 -8 0
-16 -3 -18 -7 -3 -8 -66 -44 -115 -67 -13 -6 -23 -14 -23 -18 0 -5 -6 -8 -13
-8 -7 0 -42 -20 -79 -45 -37 -25 -72 -45 -77 -45 -5 0 -11 -3 -13 -7 -1 -5
-30 -26 -63 -48 -33 -22 -62 -42 -65 -45 -3 -3 -41 -32 -85 -65 -99 -73 -98
-73 -141 -112 -20 -18 -38 -33 -41 -33 -12 0 -305 -287 -398 -390 -55 -62
-166 -198 -195 -240 -13 -19 -30 -39 -37 -43 -7 -4 -13 -15 -13 -22 0 -8 -4
-15 -10 -15 -5 0 -10 -6 -10 -14 0 -8 -4 -16 -8 -18 -11 -4 -146 -213 -210
-323 -81 -140 -292 -610 -306 -679 -2 -6 -15 -51 -31 -101 -32 -100 -32 -102
-39 -130 -2 -11 -5 -21 -6 -22 -2 -2 -3 -11 -4 -20 -1 -10 -4 -23 -8 -29 -4
-6 -10 -24 -12 -40 -3 -16 -8 -38 -10 -49 -18 -82 -48 -226 -52 -255 -3 -19
-7 -46 -10 -60 -2 -14 -6 -50 -9 -80 -4 -30 -8 -65 -10 -78 -20 -117 -27 -585
-12 -747 4 -44 10 -105 13 -135 3 -30 7 -66 9 -80 3 -14 7 -43 10 -65 5 -34
18 -106 41 -225 3 -14 21 -88 41 -165 19 -77 37 -151 40 -165 3 -14 9 -29 13
-35 4 -5 11 -23 15 -40 5 -16 9 -34 11 -40 4 -14 63 -177 71 -195 3 -8 5 -18
5 -23 -1 -4 3 -7 10 -7 6 0 9 -2 6 -6 -11 -10 162 -377 233 -494 83 -135 142
-228 188 -293 31 -44 61 -86 66 -95 6 -9 15 -21 20 -27 6 -7 21 -27 35 -45
144 -192 455 -511 628 -644 15 -11 29 -23 32 -26 3 -4 37 -30 75 -58 39 -28
76 -57 84 -63 26 -23 219 -148 322 -209 87 -52 377 -199 457 -231 12 -5 32
-13 45 -18 131 -55 465 -166 484 -163 2 1 33 -8 70 -18 71 -19 242 -55 309
-65 22 -4 50 -8 64 -10 14 -3 50 -7 80 -10 30 -3 69 -8 86 -10 106 -15 195
-19 409 -19 210 -1 283 2 445 19 60 6 124 14 145 19 11 2 45 7 75 12 30 4 57
8 60 9 3 1 25 5 50 9 25 4 59 11 75 16 17 5 44 12 60 15 49 8 75 14 95 20 10
3 27 8 37 10 53 11 345 106 388 125 52 24 150 60 162 60 7 0 13 4 13 10 0 5
18 14 40 20 21 6 42 15 45 20 3 6 15 10 25 10 10 0 20 3 22 8 2 4 52 32 113
62 102 51 246 135 355 205 64 42 213 147 226 160 6 5 23 19 39 30 31 23 141
113 200 165 72 63 319 314 370 375 27 33 52 62 56 65 13 10 237 313 250 338 8
15 18 32 22 37 14 18 77 117 77 121 0 2 11 22 24 43 37 57 177 326 176 333 -1
2 13 35 31 73 32 70 117 287 124 315 2 8 17 56 33 105 29 88 85 304 97 375 3
19 10 54 16 78 5 23 12 59 14 80 3 20 8 48 10 62 5 26 13 88 20 154 27 247 27
660 0 867 -2 20 -7 56 -10 80 -10 94 -33 224 -56 326 -10 44 -21 94 -24 110
-6 35 -59 218 -74 256 -6 15 -9 27 -6 27 2 0 -4 20 -15 45 -11 25 -19 48 -19
50 0 7 -38 110 -55 150 -7 17 -26 62 -42 100 -31 77 -184 387 -194 395 -4 3
-17 26 -30 53 -13 26 -27 47 -32 47 -4 0 -8 5 -8 11 0 11 -160 254 -193 295
-9 10 -30 37 -46 59 -17 22 -36 46 -43 54 -7 8 -20 24 -28 37 -69 101 -469
501 -574 573 -12 8 -23 18 -26 21 -24 31 -398 290 -419 290 -6 0 -11 5 -11 10
0 6 -4 10 -9 10 -5 0 -38 17 -72 38 -35 21 -79 45 -96 53 -18 8 -33 17 -33 21
0 5 -5 8 -11 8 -7 0 -55 22 -108 48 -53 26 -127 61 -166 76 -38 16 -83 35
-100 42 -50 22 -228 86 -254 90 -14 3 -28 7 -33 10 -11 7 -135 44 -168 50 -14
3 -47 11 -75 18 -89 25 -212 50 -295 61 -30 4 -64 9 -75 11 -11 2 -36 6 -55 8
-48 6 -137 17 -185 22 -50 6 -552 14 -556 9z"/>
</g>
</svg>
